<svg width="172" height="49" viewBox="0 0 172 49" fill="none" xmlns="http://www.w3.org/2000/svg">
<path d="M5.23455 42.8545L3.01383 48.1221H0L9.20012 27.1064H12.0553L21.2555 48.1221H18.2416L16.0209 42.8545L10.5749 30.1244L5.23455 42.8545Z" fill="white"/>
<path d="M98.2932 42.8545L96.0725 48.1221H93.1116L102.312 27.1064H105.167L114.367 48.1221H111.353L109.132 42.8545L103.739 30.1244L98.2932 42.8545Z" fill="white"/>
<path d="M27.1774 29.6856V37.0383H34.2096V39.6173H27.1774V48.1223H24.2693V27.0518H38.5982V29.6856H27.1774Z" fill="white"/>
<path d="M45.5248 29.6856V37.0383H52.5571V39.6173H45.5248V48.1223H42.6167V27.0518H56.9456V29.6856H45.5248Z" fill="white"/>
<path d="M61.0168 27.0518H63.9249V48.0674H61.0168V27.0518Z" fill="white"/>
<path d="M70.0056 27.0518H72.9137V45.4885H83.9116V48.1223H70.0585V27.0518H70.0056Z" fill="white"/>
<path d="M87.1897 27.0518H90.0978V48.0674H87.1897V27.0518Z" fill="white"/>
<path d="M120.395 29.6856H113.468V27.0518H130.229V29.6856H123.303V48.1223H120.448V29.6856H120.395Z" fill="white"/>
<path d="M148.101 45.4885V48.1223H133.402V27.0518H147.731V29.6856H136.31V36.1604H143.289V38.7393H136.257V45.5434H148.101V45.4885Z" fill="white"/>
<path d="M154.287 47.5735C152.86 47.0797 151.749 46.4212 150.956 45.653L152.014 43.2936C152.807 44.0069 153.758 44.6105 154.974 45.0495C156.191 45.4884 157.407 45.7079 158.676 45.7079C160.368 45.7079 161.584 45.4336 162.43 44.83C163.276 44.2264 163.699 43.4582 163.699 42.4705C163.699 41.7572 163.487 41.1536 163.011 40.7146C162.536 40.2757 162.007 39.8916 161.319 39.6721C160.632 39.4526 159.733 39.1782 158.517 38.849C156.984 38.4649 155.768 38.0808 154.816 37.6967C153.864 37.3126 153.071 36.709 152.437 35.9408C151.749 35.1726 151.432 34.0752 151.432 32.7583C151.432 31.6609 151.696 30.6183 152.278 29.7404C152.86 28.8625 153.706 28.0943 154.869 27.6004C156.032 27.0517 157.46 26.7773 159.204 26.7773C160.421 26.7773 161.584 26.942 162.747 27.2712C163.91 27.6004 164.915 28.0394 165.708 28.643L164.756 31.0573C163.91 30.5086 163.011 30.0696 162.06 29.7953C161.108 29.5209 160.156 29.3563 159.204 29.3563C157.565 29.3563 156.349 29.6855 155.503 30.2891C154.657 30.8927 154.287 31.7158 154.287 32.7034C154.287 33.4168 154.499 34.0203 154.974 34.4593C155.45 34.8983 156.032 35.2824 156.719 35.5019C157.407 35.7762 158.358 35.9957 159.522 36.3249C161.055 36.709 162.271 37.0931 163.223 37.4772C164.175 37.8613 164.968 38.4649 165.602 39.2331C166.29 40.0013 166.607 41.0439 166.607 42.3608C166.607 43.4582 166.342 44.4459 165.761 45.3787C165.179 46.3115 164.28 47.0248 163.117 47.5187C161.954 48.0674 160.473 48.3417 158.781 48.3417C157.142 48.3417 155.662 48.0674 154.287 47.5735Z" fill="white"/>
<path d="M37.1177 12.2363C36.959 13.2789 36.6418 14.2666 36.1659 15.1445C35.4786 16.4065 34.5268 17.3942 33.3107 18.1075C32.0946 18.8209 30.7728 19.1501 29.2394 19.1501C27.7061 19.1501 26.3842 18.8209 25.1152 18.1075C23.8991 17.3942 22.9474 16.4065 22.2071 15.1445C21.7313 14.2666 21.414 13.2789 21.2554 12.2363H18.2944C18.4531 13.7727 18.9289 15.1994 19.6692 16.5163C20.6209 18.1624 21.9428 19.4793 23.5819 20.4121C25.221 21.3449 27.1244 21.8388 29.1865 21.8388C31.2486 21.8388 33.0992 21.3449 34.7912 20.4121C36.4832 19.4793 37.7522 18.1624 38.7039 16.5163C39.4441 15.1994 39.8671 13.7727 40.0258 12.2363H37.1177Z" fill="#FFD20A"/>
<path d="M21.3084 9.60246C21.467 8.55991 21.7842 7.57223 22.2601 6.69429C22.9475 5.43225 23.8992 4.44457 25.1682 3.73124C26.3314 3.07279 27.7062 2.74356 29.2395 2.74356C30.7729 2.74356 32.0947 3.07279 33.3108 3.78611C34.5269 4.49944 35.4787 5.48712 36.166 6.74916C36.6419 7.6271 36.9592 8.61478 37.1178 9.65734H40.0787C39.9201 8.12094 39.4971 6.63942 38.7569 5.37738C37.8051 3.73124 36.5362 2.41433 34.8442 1.48152C33.1522 0.493841 31.3016 0 29.2395 0C27.1774 0 25.2739 0.493841 23.6348 1.42665C21.9429 2.35946 20.6739 3.67637 19.7221 5.32251C18.9819 6.63942 18.506 8.06607 18.3474 9.60246H21.3084Z" fill="#04AFBC"/>
<path d="M17.0255 0.219727H0V2.90842H7.03228V21.6195H9.99324V2.90842H17.0255V0.219727Z" fill="white"/>
<path d="M58.9549 2.24978C57.4215 0.932869 55.3066 0.274414 52.6629 0.274414H44.626V21.6193H47.5869V18.4917V9.49278V2.90823H52.61C54.4606 2.90823 55.8882 3.3472 56.8928 4.17027C57.8974 4.99334 58.3733 6.20051 58.3733 7.7369C58.3733 9.27329 57.8974 10.4805 56.8928 11.3035C55.8882 12.1266 54.5135 12.5656 52.61 12.5656H49.4904V15.1994H52.7157C55.3594 15.1994 57.4744 14.5409 59.0078 13.224C60.5411 11.9071 61.2814 10.0964 61.2814 7.7369C61.2814 5.37744 60.4883 3.56669 58.9549 2.24978Z" fill="white"/>
<path d="M170.202 48.9452C171.166 48.9452 171.947 48.1345 171.947 47.1345C171.947 46.1344 171.166 45.3237 170.202 45.3237C169.239 45.3237 168.458 46.1344 168.458 47.1345C168.458 48.1345 169.239 48.9452 170.202 48.9452Z" fill="#FFD20A"/>
</svg>
